<svg version="1.1" id="Layer_1" xmlns="http://www.w3.org/2000/svg" xmlns:xlink="http://www.w3.org/1999/xlink" x="0px" y="0px"
	 width="100%" viewBox="0 0 720 720" enable-background="new 0 0 720 720" xml:space="preserve">
<path fill="#000000" opacity="1.000000" stroke="none" 
	d="
M361.512512,317.517883 
	C356.832794,315.248749 352.188568,313.578796 348.237549,310.890106 
	C343.055756,307.363831 338.813995,308.539886 333.703278,311.144257 
	C295.282898,330.722870 256.729736,350.040894 218.218292,369.440765 
	C214.204437,371.462677 210.246796,373.609039 206.153610,375.454895 
	C204.299561,376.291046 201.837448,378.877808 200.270264,375.564819 
	C199.006119,372.892456 199.594498,370.000763 202.519867,368.157104 
	C207.167801,365.227753 211.778381,362.239197 216.406296,359.278046 
	C256.523712,333.609253 296.662079,307.972961 336.714081,282.202454 
	C339.460205,280.435516 341.513519,280.249054 344.427887,281.688446 
	C359.652466,289.207703 375.056122,296.367126 390.222778,303.998840 
	C393.480194,305.637909 395.599487,305.252533 398.316559,303.316284 
	C422.860016,285.825928 447.485962,268.451355 472.044922,250.982681 
	C477.399536,247.173950 477.337250,247.051651 473.618286,241.711426 
	C470.531281,237.278656 467.399292,232.877213 463.716400,227.652008 
	C486.174957,224.015518 507.725555,222.873901 530.559631,220.510315 
	C521.152344,241.332565 512.263123,261.008026 503.069794,281.356781 
	C497.813721,276.831970 495.625793,271.183167 491.172485,266.732452 
	C484.107666,272.105316 477.081024,277.364655 470.144440,282.740204 
	C448.292633,299.674530 426.445312,316.615112 404.678162,333.657837 
	C401.750153,335.950287 399.236511,336.807831 395.663788,334.922546 
	C384.474609,329.018158 373.136688,323.395599 361.512512,317.517883 
z"/>
<path fill="#000000" opacity="1.000000" stroke="none" 
	d="
M328.857910,464.194458 
	C319.943298,461.065552 318.599274,454.720245 318.833008,446.368744 
	C319.601440,418.909760 318.492279,391.424133 319.546753,363.954620 
	C319.916748,354.315613 318.744537,344.680603 319.396790,335.006042 
	C319.623169,331.648254 320.700104,329.769958 323.609009,328.493195 
	C326.350220,327.290039 329.327698,326.286194 331.620453,324.463898 
	C338.498993,318.996918 344.962708,320.462982 351.534424,324.839935 
	C352.773651,325.665314 354.121857,326.415955 355.524963,326.889252 
	C359.320099,328.169495 360.281952,330.807983 360.258972,334.608215 
	C360.134277,355.258240 360.217407,375.909546 360.221588,396.560394 
	C360.227386,425.205139 360.237854,453.849854 360.203339,482.494568 
	C360.201019,484.413940 360.775208,486.482239 358.739197,489.048553 
	C349.493561,479.977661 340.176117,471.108795 328.857910,464.194458 
z"/>
<path fill="#000000" opacity="1.000000" stroke="none" 
	d="
M427.845642,333.252380 
	C427.642334,329.833313 428.171844,327.308990 430.779419,325.306610 
	C442.137878,316.584412 453.394897,307.730225 464.702362,298.941437 
	C465.604950,298.239899 466.544617,297.446472 467.976074,298.041901 
	C469.508026,299.622772 468.965210,301.726929 468.967804,303.644958 
	C469.025940,346.785400 468.966949,389.926208 469.163055,433.065918 
	C469.187469,438.429199 467.476929,440.612671 462.078979,441.568329 
	C452.423584,443.277649 443.028503,446.245789 433.867401,449.840698 
	C428.569122,451.919769 427.825226,451.443665 427.823059,445.648438 
	C427.809082,408.337494 427.832672,371.026520 427.845642,333.252380 
z"/>
<path fill="#000000" opacity="1.000000" stroke="none" 
	d="
M374.717560,488.289093 
	C373.485687,486.740479 373.775482,485.200134 373.775330,483.729004 
	C373.771423,436.959381 373.786194,390.189789 373.798950,343.420166 
	C373.799164,342.587982 373.814240,341.755829 373.813171,340.923645 
	C373.808441,337.182556 375.537964,336.683075 378.578766,338.257629 
	C384.191376,341.163818 389.940399,343.820099 395.450226,346.906067 
	C398.695648,348.723785 401.271484,348.528137 403.986633,346.077881 
	C406.081573,344.187347 408.402710,342.546234 410.637115,340.812012 
	C411.536774,340.113739 412.411377,339.101196 413.710999,339.900146 
	C414.856567,340.604370 414.855743,341.814178 414.857147,343.003387 
	C414.900482,379.762115 414.937653,416.520844 415.023254,453.279480 
	C415.030243,456.286072 414.555237,458.754913 411.606171,460.424744 
	C399.075592,467.519836 387.797852,476.246948 377.931824,486.766479 
	C377.149261,487.600891 376.403320,488.574249 374.717560,488.289093 
z"/>
<path fill="#000000" opacity="1.000000" stroke="none" 
	d="
M519.524658,404.290466 
	C507.408875,404.225525 495.861053,401.951141 484.174957,402.325348 
	C480.138519,402.454590 479.625153,400.152466 479.648224,396.887756 
	C479.671692,393.563843 480.366608,391.559113 484.359802,391.606750 
	C498.855896,391.779633 513.354919,391.752899 527.852539,391.704803 
	C530.419739,391.696289 532.322021,392.480560 533.788818,394.611572 
	C549.748413,417.798492 565.735107,440.966705 581.713196,464.140869 
	C582.197937,464.843903 582.536011,465.586121 582.144165,466.720337 
	C579.237488,467.758148 576.399963,466.326843 573.616211,465.729218 
	C550.229248,460.708008 526.577515,458.296692 502.695984,459.219696 
	C454.880249,461.067810 412.151855,476.454742 375.700226,508.031403 
	C374.319000,509.227905 372.820282,510.294983 371.322632,511.345886 
	C371.004211,511.569275 370.451172,511.458252 369.990479,511.502808 
	C369.238831,509.565582 370.722748,508.601685 371.532410,507.480835 
	C388.183838,484.430389 409.838959,467.937012 436.359344,457.654297 
	C456.107666,449.997314 476.679047,446.627167 497.632355,444.750519 
	C512.451416,443.423248 527.231689,443.513123 542.036621,444.703186 
	C543.641174,444.832123 545.354736,445.315735 547.342224,443.902802 
	C545.983582,439.229034 542.884888,435.258942 540.628479,430.932312 
	C537.087646,424.143158 532.863586,417.702362 529.479065,410.842590 
	C527.395508,406.619659 524.703918,404.223816 519.524658,404.290466 
z"/>
<path fill="#000000" opacity="1.000000" stroke="none" 
	d="
M152.622620,463.590637 
	C167.864487,441.511658 182.994415,419.784882 197.869385,397.884888 
	C200.864105,393.475861 204.060303,391.367798 209.658646,391.555603 
	C222.636703,391.990875 235.641647,391.756683 248.632919,391.584747 
	C252.448288,391.534241 254.512711,392.230011 254.393845,396.751953 
	C254.288254,400.769318 253.116745,402.267059 248.935242,402.408081 
	C237.462372,402.795074 226.008987,403.727203 214.540497,404.293610 
	C209.992706,404.518219 206.956299,406.202087 204.723892,410.491821 
	C198.908386,421.666840 192.595764,432.583130 186.352158,443.835571 
	C188.993286,445.452179 191.354706,444.808899 193.549805,444.632660 
	C224.891037,442.116516 255.790009,444.735748 285.927063,453.693695 
	C317.545441,463.091949 343.507324,480.922882 362.840637,507.935486 
	C363.560364,508.941010 364.833252,509.845337 363.854065,511.984314 
	C359.575348,510.353699 356.810150,506.683533 353.508636,503.980408 
	C329.344940,484.196625 301.971100,471.191254 271.575409,464.329895 
	C251.305710,459.754364 230.753387,458.383759 210.076263,459.304688 
	C191.783020,460.119385 173.669357,462.653137 155.778397,466.664795 
	C153.720093,467.126343 150.394775,468.583893 152.622620,463.590637 
z"/>
<path fill="#000000" opacity="1.000000" stroke="none" 
	d="
M306.215302,374.000000 
	C306.222046,397.991913 306.240997,421.483826 306.227478,444.975739 
	C306.223724,451.511383 305.350616,452.085846 299.347748,449.683624 
	C289.900970,445.903290 280.214264,442.913483 270.185455,441.168701 
	C266.400146,440.510132 264.927399,438.714905 264.950348,434.771667 
	C265.089050,410.947449 265.081512,387.121674 264.954956,363.297333 
	C264.934723,359.493561 266.115997,357.230774 269.655060,355.516815 
	C280.291595,350.365662 290.785431,344.915680 301.272339,339.461914 
	C304.907745,337.571350 306.182251,338.851746 306.184937,342.510742 
	C306.192444,352.840485 306.204773,363.170258 306.215302,374.000000 
z"/>
<path fill="#000000" opacity="1.000000" stroke="none" 
	d="
M165.055359,478.854004 
	C190.643555,473.530304 216.056763,470.789673 241.791351,471.750366 
	C281.713593,473.240723 318.715576,484.219147 352.263702,506.181793 
	C354.494873,507.642456 357.766052,508.008789 358.477905,511.472198 
	C356.254852,512.585754 354.552979,511.144501 352.811401,510.463470 
	C310.135681,493.776062 265.938202,485.321808 220.112015,487.586029 
	C198.039459,488.676605 176.156647,492.271179 154.914673,498.894135 
	C153.294022,499.399414 151.379242,501.018829 149.818329,499.319977 
	C148.216263,497.576324 150.163651,495.948944 150.798416,494.355377 
	C151.659637,492.193237 152.982361,490.180603 153.600052,487.962616 
	C155.185135,482.270782 158.802017,479.298187 165.055359,478.854004 
z"/>
<path fill="#000000" opacity="1.000000" stroke="none" 
	d="
M521.527222,472.335449 
	C539.196655,472.980316 555.980896,476.440338 572.795410,479.751434 
	C575.729004,480.329071 577.593689,481.709930 578.749634,484.387207 
	C580.836548,489.220795 583.018555,494.013367 584.871765,499.840942 
	C513.583801,478.338135 444.203003,485.303864 375.839142,511.365051 
	C419.247925,479.520630 468.211456,468.678009 521.527222,472.335449 
z"/>
</svg>